<?xml version="1.0" standalone="no"?>
<!DOCTYPE svg PUBLIC "-//W3C//DTD SVG 20010904//EN"
 "http://www.w3.org/TR/2001/REC-SVG-20010904/DTD/svg10.dtd">
<svg version="1.0" xmlns="http://www.w3.org/2000/svg"
 width="4096.000000pt" height="4096.000000pt" viewBox="0 0 4096.000000 4096.000000"
 preserveAspectRatio="xMidYMid meet">

<g transform="translate(0.000000,4096.000000) scale(0.100000,-0.100000)"
fill="#000000" stroke="none">
<path d="M4980 30713 c-187 -20 -408 -101 -565 -206 -83 -56 -108 -77 -203
-170 -172 -170 -294 -396 -348 -647 -26 -119 -26 -381 0 -500 110 -512 491
-893 1006 -1006 83 -19 492 -19 15610 -19 15118 0 15527 0 15610 19 515 113
895 493 1006 1006 26 119 26 381 0 500 -59 275 -188 501 -400 699 -151 143
-355 247 -601 308 -66 16 -885 17 -15575 19 -8528 0 -15521 -1 -15540 -3z"/>
<path d="M4980 21753 c-187 -20 -408 -101 -565 -206 -83 -56 -108 -77 -203
-170 -172 -170 -294 -396 -348 -647 -26 -119 -26 -381 0 -500 110 -512 491
-893 1006 -1006 83 -19 492 -19 15610 -19 15118 0 15527 0 15610 19 515 113
895 493 1006 1006 26 119 26 381 0 500 -59 275 -188 501 -400 699 -151 143
-355 247 -601 308 -66 16 -885 17 -15575 19 -8528 0 -15521 -1 -15540 -3z"/>
<path d="M4980 12793 c-187 -20 -408 -101 -565 -206 -83 -56 -108 -77 -203
-170 -172 -170 -294 -396 -348 -647 -26 -119 -26 -381 0 -500 110 -512 491
-893 1006 -1006 83 -19 492 -19 15610 -19 15118 0 15527 0 15610 19 515 113
895 493 1006 1006 26 119 26 381 0 500 -59 275 -188 501 -400 699 -151 143
-355 247 -601 308 -66 16 -885 17 -15575 19 -8528 0 -15521 -1 -15540 -3z"/>
</g>
</svg>
