<svg width="50" height="50" viewBox="0 0 50 50" fill="none" xmlns="http://www.w3.org/2000/svg">
<g id="restore">
<path id="Vector" d="M28.125 6.25C17.7708 6.25 9.375 14.6458 9.375 25H3.125L11.4583 33.3125L19.7917 25H13.5417C13.5417 16.9375 20.0625 10.4167 28.125 10.4167C36.1875 10.4167 42.7083 16.9375 42.7083 25C42.7083 33.0625 36.1875 39.5833 28.125 39.5833C24.1042 39.5833 20.4583 37.9375 17.8333 35.2917L14.875 38.25C18.2708 41.6458 22.9375 43.75 28.125 43.75C38.4792 43.75 46.875 35.3542 46.875 25C46.875 14.6458 38.4792 6.25 28.125 6.25ZM26.0417 16.6667V27.0833L34.8958 32.3333L36.5 29.6667L29.1667 25.3125V16.6667H26.0417Z" fill="white"/>
</g>
</svg>
